<svg width="66" height="66" viewBox="0 0 66 66" fill="none" xmlns="http://www.w3.org/2000/svg">
<path d="M36.9066 3.51601C35.5926 3.34001 34.2526 3.25 32.8906 3.25C16.3226 3.25 2.89062 16.682 2.89062 33.25C2.89062 49.818 16.3226 63.25 32.8906 63.25C49.4585 63.25 62.8905 49.818 62.8905 33.25M62.8909 23.2505V3.2504L42.891 7.2504V27.2505M62.8909 23.2505C62.8909 21.0424 61.0989 19.2504 58.8909 19.2504C56.6829 19.2504 54.8909 21.0424 54.8909 23.2505C54.8909 25.4585 56.6829 27.2505 58.8909 27.2505C61.0989 27.2505 62.8909 25.4585 62.8909 23.2505ZM42.891 27.2505C42.891 25.0425 41.099 23.2505 38.891 23.2505C36.683 23.2505 34.891 25.0425 34.891 27.2505C34.891 29.4584 36.683 31.2504 38.891 31.2504C41.099 31.2504 42.891 29.4584 42.891 27.2505ZM28.9984 24.0377C25.4104 25.5557 22.8904 29.1077 22.8904 33.2496C22.8904 38.7736 27.3684 43.2496 32.8904 43.2496C36.9644 43.2496 40.4704 40.8136 42.0284 37.3176M16.891 17.2504L20.891 21.2504M48.891 49.2504L44.891 45.2504" stroke="#FFCC80" stroke-width="4.62659" stroke-linecap="round" stroke-linejoin="round"/>
</svg>
