<svg width="60" height="60" viewBox="0 0 167 108" fill="none" xmlns="http://www.w3.org/2000/svg">
<path d="M89.4018 10.3146C87.4713 10.0561 85.5026 9.92383 83.5015 9.92383C59.16 9.92383 39.4258 29.658 39.4258 53.9997C39.4258 78.3413 59.16 98.0755 83.5015 98.0755C107.843 98.0755 127.577 78.3413 127.577 53.9997M127.578 39.3084V9.92442L98.194 15.8012V45.1852M127.578 39.3084C127.578 36.0643 124.945 33.4315 121.701 33.4315C118.457 33.4315 115.824 36.0643 115.824 39.3084C115.824 42.5524 118.457 45.1852 121.701 45.1852C124.945 45.1852 127.578 42.5524 127.578 39.3084ZM98.194 45.1852C98.194 41.9412 95.5613 39.3084 92.3173 39.3084C89.0733 39.3084 86.4405 41.9412 86.4405 45.1852C86.4405 48.4291 89.0733 51.0619 92.3173 51.0619C95.5613 51.0619 98.194 48.4291 98.194 45.1852ZM77.7831 40.4649C72.5117 42.6952 68.8093 47.9137 68.8093 53.9991C68.8093 62.115 75.3884 68.6911 83.5012 68.6911C89.4867 68.6911 94.6377 65.1121 96.9267 59.9758M59.9951 30.4931L65.8718 36.3699M107.009 77.5074L101.132 71.6306" stroke="#EECB81" stroke-width="6.79736" stroke-linecap="round" stroke-linejoin="round"/>
</svg>
