<svg width="100" height="100" viewBox="0 0 100 100" fill="none" xmlns="http://www.w3.org/2000/svg">
<path d="M56.1575 4.40788C54.1427 4.13801 52.0881 4 49.9997 4C24.5956 4 4 24.5957 4 50.0001C4 75.4043 24.5956 96 49.9997 96C75.4038 96 95.9994 75.4043 95.9994 50.0001M96 34.6674V4.00061L65.3335 10.134V40.8007M96 34.6674C96 31.2817 93.2523 28.5339 89.8667 28.5339C86.4811 28.5339 83.7334 31.2817 83.7334 34.6674C83.7334 38.053 86.4811 40.8007 89.8667 40.8007C93.2523 40.8007 96 38.053 96 34.6674ZM65.3335 40.8007C65.3335 37.4151 62.5858 34.6674 59.2002 34.6674C55.8147 34.6674 53.0669 37.4151 53.0669 40.8007C53.0669 44.1863 55.8147 46.934 59.2002 46.934C62.5858 46.934 65.3335 44.1863 65.3335 40.8007ZM44.0317 35.8744C38.5301 38.202 34.6662 43.6484 34.6662 49.9995C34.6662 58.4696 41.5324 65.3328 49.9994 65.3328C56.2461 65.3328 61.622 61.5976 64.0109 56.237M25.4671 25.4673L31.6004 31.6006M74.5335 74.534L68.4002 68.4007" stroke="#EECB81" stroke-width="7.63" stroke-linecap="round" stroke-linejoin="round"/>
</svg>
